<svg width="24" height="24" viewBox="0 0 24 24" fill="none" xmlns="http://www.w3.org/2000/svg">
<path d="M21.9695 18.33C21.9695 18.69 21.8895 19.06 21.7195 19.42C21.5495 19.78 21.3295 20.12 21.0395 20.44C20.5495 20.98 20.0095 21.37 19.3995 21.62C18.7995 21.87 18.1495 22 17.4495 22C16.4295 22 15.3395 21.76 14.1895 21.27C13.0395 20.78 11.8895 20.12 10.7495 19.29C9.59951 18.45 8.50951 17.52 7.46951 16.49C6.43951 15.45 5.50951 14.36 4.67951 13.22C3.85951 12.08 3.19951 10.94 2.71951 9.81C2.23951 8.67 1.99951 7.58 1.99951 6.54C1.99951 5.86 2.11951 5.21 2.35951 4.61C2.59951 4 2.97951 3.44 3.50951 2.94C4.14951 2.31 4.84951 2 5.58951 2C5.86951 2 6.14951 2.06 6.39951 2.18C6.65951 2.3 6.88951 2.48 7.06951 2.74L9.38951 6.01C9.56951 6.26 9.69951 6.49 9.78951 6.71C9.87951 6.92 9.92951 7.13 9.92951 7.32C9.92951 7.56 9.85951 7.8 9.71951 8.03C9.58951 8.26 9.39951 8.5 9.15951 8.74L8.39951 9.53C8.28951 9.64 8.23951 9.77 8.23951 9.93C8.23951 10.01 8.24951 10.08 8.26951 10.16C8.29951 10.24 8.32951 10.3 8.34951 10.36C8.52951 10.69 8.83951 11.12 9.27951 11.64C9.72951 12.16 10.2095 12.69 10.7295 13.22C11.2695 13.75 11.7895 14.24 12.3195 14.69C12.8395 15.13 13.2695 15.43 13.6095 15.61C13.6595 15.63 13.7195 15.66 13.7895 15.69C13.8695 15.72 13.9495 15.73 14.0395 15.73C14.2095 15.73 14.3395 15.67 14.4495 15.56L15.2095 14.81C15.4595 14.56 15.6995 14.37 15.9295 14.25C16.1595 14.11 16.3895 14.04 16.6395 14.04C16.8295 14.04 17.0295 14.08 17.2495 14.17C17.4695 14.26 17.6995 14.39 17.9495 14.56L21.2595 16.91C21.5195 17.09 21.6995 17.3 21.8095 17.55C21.9095 17.8 21.9695 18.05 21.9695 18.33Z" stroke="#1D322F" stroke-width="1.5" stroke-miterlimit="10"/>
</svg>
