<svg width="50" height="50" viewBox="0 0 50 50" fill="none" xmlns="http://www.w3.org/2000/svg">
<path d="M40.3668 26.9042C39.9109 26.4333 39.2926 26.1687 38.6479 26.1687C38.0032 26.1687 37.3849 26.4333 36.9289 26.9042L34.6362 29.2727C34.6313 29.2727 34.6297 29.2836 34.6257 29.2878L33.4911 30.454C33.116 30.8439 32.67 31.1535 32.1788 31.3646C31.6875 31.5758 31.1606 31.6845 30.6286 31.6845C30.0965 31.6845 29.5697 31.5758 29.0784 31.3646C28.5871 31.1535 28.1412 30.8439 27.7661 30.454L19.7428 22.1654C19.3653 21.7779 19.0656 21.317 18.8612 20.8093C18.6568 20.3016 18.5516 19.7573 18.5516 19.2075C18.5516 18.6576 18.6568 18.1133 18.8612 17.6056C19.0656 17.098 19.3653 16.6371 19.7428 16.2495L20.8725 15.0774L20.883 15.0707L23.1758 12.703C23.4016 12.4697 23.5808 12.1928 23.7029 11.8881C23.8251 11.5833 23.8881 11.2566 23.8881 10.9268C23.8881 10.5969 23.8251 10.2702 23.7029 9.96545C23.5808 9.6607 23.4016 9.38382 23.1758 9.15057L16.2968 2.03992C15.8336 1.58304 15.2178 1.3281 14.5774 1.3281C13.937 1.3281 13.3212 1.58304 12.8581 2.03992L10.5662 4.40763L10.5605 4.41684C7.83084 7.24217 6.2302 11.0251 6.07675 15.0137C5.92329 19.0022 7.22824 22.9045 9.73221 25.9447V28.8625C9.61551 28.9102 9.50286 28.9587 9.39264 29.0081L7.24173 26.7861C7.08689 26.6348 6.88186 26.5506 6.66875 26.5506C6.45564 26.5506 6.25061 26.6348 6.09577 26.7861L2.6595 30.336C2.50757 30.493 2.42222 30.7059 2.42222 30.9279C2.42222 31.15 2.50757 31.3629 2.6595 31.5198L4.81041 33.7419C4.76178 33.8557 4.71559 33.9721 4.66939 34.0927H1.62781C1.41287 34.0927 1.20673 34.1809 1.05474 34.3379C0.902763 34.4949 0.817375 34.7079 0.817375 34.9299V39.9533C0.817375 40.1754 0.902763 40.3884 1.05474 40.5453C1.20673 40.7023 1.41287 40.7906 1.62781 40.7906H4.66939C4.71559 40.9111 4.76178 41.0275 4.81041 41.1405L2.6595 43.3634C2.50757 43.5204 2.42222 43.7333 2.42222 43.9553C2.42222 44.1774 2.50757 44.3903 2.6595 44.5472L6.09577 48.0971C6.24775 48.2541 6.45385 48.3423 6.66875 48.3423C6.88364 48.3423 7.08975 48.2541 7.24173 48.0971L9.39264 45.8751C9.50286 45.9245 9.61551 45.9731 9.73221 46.0208V49.1629C9.73221 49.385 9.81763 49.598 9.96959 49.7549C10.1215 49.9119 10.3277 50.0002 10.5426 50.0002H15.4053C15.6202 50.0002 15.8264 49.9119 15.9783 49.7549C16.1303 49.598 16.2157 49.385 16.2157 49.1629V46.0208C16.3324 45.9731 16.4451 45.9245 16.5553 45.8751L18.7062 48.0971C18.8611 48.2484 19.066 48.3326 19.2792 48.3326C19.4923 48.3326 19.6973 48.2484 19.8522 48.0971L23.2884 44.5472C23.4404 44.3903 23.5257 44.1774 23.5257 43.9553C23.5257 43.7333 23.4404 43.5204 23.2884 43.3634L21.1375 41.1405C21.1861 41.0275 21.2323 40.9111 21.2785 40.7906H24.1021C27.043 43.3816 30.8209 44.7326 34.683 44.5741C38.545 44.4157 42.2075 42.7596 44.9401 39.9358L44.9507 39.9291L47.2426 37.5605C47.4684 37.3273 47.6476 37.0504 47.7697 36.7456C47.8919 36.4409 47.9549 36.1142 47.9549 35.7843C47.9549 35.4544 47.8919 35.1278 47.7697 34.823C47.6476 34.5182 47.4684 34.2414 47.2426 34.0081L40.3668 26.9042ZM14.0057 3.22294C14.16 3.07073 14.3652 2.9858 14.5786 2.9858C14.792 2.9858 14.9972 3.07073 15.1516 3.22294L22.0282 10.3277C22.1799 10.4847 22.2651 10.6974 22.2651 10.9192C22.2651 11.141 22.1799 11.3538 22.0282 11.5107L20.3101 13.2848L12.2867 4.9962L14.0057 3.22294ZM23.5097 39.1161H20.7056C20.534 39.1161 20.3668 39.1724 20.2282 39.2768C20.0895 39.3812 19.9865 39.5284 19.934 39.6971C19.8082 40.1159 19.644 40.5213 19.4437 40.9078C19.3596 41.0665 19.3276 41.2492 19.3524 41.4284C19.3772 41.6075 19.4576 41.7736 19.5815 41.9016L21.5687 43.9553L19.2792 46.3214L17.2912 44.2676C17.1672 44.1394 17.0063 44.0563 16.8327 44.0307C16.6591 44.005 16.4822 44.0382 16.3284 44.1253C15.9545 44.3328 15.562 44.5025 15.1565 44.6318C14.9933 44.6862 14.8509 44.7926 14.75 44.9359C14.6491 45.0791 14.5948 45.2517 14.5948 45.4289V48.3257H11.3531V45.4289C11.3532 45.2517 11.2988 45.0791 11.1979 44.9359C11.097 44.7926 10.9547 44.6862 10.7915 44.6318C10.3859 44.5025 9.99341 44.3328 9.61956 44.1253C9.46574 44.0382 9.28882 44.005 9.11522 44.0307C8.94163 44.0563 8.78075 44.1394 8.65676 44.2676L6.66875 46.3214L4.38331 43.9553L6.37051 41.9016C6.49437 41.7736 6.57474 41.6075 6.59958 41.4284C6.62442 41.2492 6.59238 41.0665 6.50828 40.9078C6.3093 40.5211 6.14648 40.1158 6.02202 39.6971C5.9691 39.527 5.86487 39.3788 5.72459 39.2743C5.58432 39.1698 5.41534 39.1143 5.24237 39.1161H2.43825V35.7672H5.24237C5.41396 35.7672 5.58111 35.7109 5.71976 35.6065C5.85841 35.5021 5.9614 35.3549 6.01391 35.1861C6.13837 34.7675 6.3012 34.3621 6.50018 33.9755C6.58428 33.8167 6.61631 33.634 6.59147 33.4549C6.56663 33.2757 6.48626 33.1097 6.3624 32.9817L4.38331 30.9279L6.66875 28.5619L8.65676 30.6156C8.78075 30.7438 8.94163 30.827 9.11522 30.8526C9.28882 30.8783 9.46574 30.845 9.61956 30.758C9.99341 30.5504 10.3859 30.3808 10.7915 30.2514C10.9547 30.197 11.097 30.0906 11.1979 29.9474C11.2988 29.8041 11.3532 29.6315 11.3531 29.4544V26.5576H14.5948V29.4544C14.5948 29.6315 14.6491 29.8041 14.75 29.9474C14.8509 30.0906 14.9933 30.197 15.1565 30.2514C15.562 30.3808 15.9545 30.5504 16.3284 30.758C16.4822 30.845 16.6591 30.8783 16.8327 30.8526C17.0063 30.827 17.1672 30.7438 17.2912 30.6156L19.2792 28.5619L21.5687 30.9279L19.5815 32.9817C19.4576 33.1097 19.3772 33.2757 19.3524 33.4549C19.3276 33.634 19.3596 33.8167 19.4437 33.9755C19.644 34.3619 19.8082 34.7673 19.934 35.1861C19.9865 35.3549 20.0895 35.5021 20.2282 35.6065C20.3668 35.7109 20.534 35.7672 20.7056 35.7672H23.5097V39.1161ZM25.1306 39.4987V34.9299C25.1306 34.7079 25.0451 34.4949 24.8932 34.3379C24.7412 34.1809 24.535 34.0927 24.3201 34.0927H21.2785C21.2323 33.9721 21.1861 33.8557 21.1375 33.7419L23.2884 31.5198C23.4404 31.3629 23.5257 31.15 23.5257 30.9279C23.5257 30.7059 23.4404 30.493 23.2884 30.336L19.8522 26.7861C19.7002 26.6291 19.4941 26.541 19.2792 26.541C19.0643 26.541 18.8582 26.6291 18.7062 26.7861L16.5553 29.0081C16.4451 28.9587 16.3324 28.9102 16.2157 28.8625V25.7203C16.2157 25.4983 16.1303 25.2853 15.9783 25.1283C15.8264 24.9713 15.6202 24.8831 15.4053 24.8831H10.9835C8.8246 22.2723 7.65286 18.9429 7.68472 15.5093C7.71665 12.0758 8.94997 8.77013 11.157 6.20266L19.1617 14.472L18.5944 15.0631C18.0659 15.6064 17.6465 16.2522 17.3603 16.9634C17.0741 17.6746 16.9268 18.4373 16.9268 19.2075C16.9268 19.9776 17.0741 20.7403 17.3603 21.4515C17.6465 22.1627 18.0659 22.8085 18.5944 23.3518L26.6177 31.6404C27.143 32.186 27.7676 32.6191 28.4554 32.9149C29.1432 33.2105 29.8807 33.3629 30.6257 33.3633C31.3707 33.3637 32.1084 33.2121 32.7965 32.9171C33.4846 32.6222 34.1095 32.1897 34.6354 31.6446L35.2116 31.0535L43.2171 39.3229C40.731 41.6032 37.5302 42.8772 34.2057 42.9095C30.8813 42.9418 27.6578 41.7303 25.1306 39.4987ZM46.0966 36.3767L44.3793 38.1508L36.356 29.8621L38.0741 28.0889C38.226 27.9319 38.4321 27.8437 38.6471 27.8437C38.862 27.8437 39.0681 27.9319 39.22 28.0889L46.0966 35.1928C46.2486 35.3498 46.3339 35.5627 46.3339 35.7847C46.3339 36.0068 46.2486 36.2197 46.0966 36.3767Z" fill="black"/>
<path d="M12.974 33.2556C12.1726 33.2556 11.3891 33.5011 10.7228 33.961C10.0563 34.4211 9.53692 35.0748 9.23025 35.8398C8.92358 36.6047 8.84327 37.4464 8.99968 38.2585C9.15601 39.0705 9.54195 39.8164 10.1087 40.4018C10.6753 40.9873 11.3974 41.386 12.1835 41.5475C12.9695 41.7091 13.7843 41.6261 14.5247 41.3093C15.2652 40.9925 15.898 40.4559 16.3433 39.7675C16.7886 39.0791 17.0262 38.2697 17.0262 37.4418C17.0249 36.3319 16.5976 35.268 15.8379 34.4831C15.0782 33.6984 14.0483 33.2569 12.974 33.2556ZM12.974 39.9535C12.4932 39.9535 12.023 39.8061 11.6232 39.5302C11.2234 39.2542 10.9118 38.8619 10.7278 38.4029C10.5437 37.944 10.4956 37.439 10.5894 36.9517C10.6832 36.4646 10.9147 36.017 11.2548 35.6657C11.5948 35.3144 12.028 35.0752 12.4996 34.9783C12.9713 34.8814 13.4602 34.9312 13.9045 35.1213C14.3487 35.3113 14.7284 35.6333 14.9956 36.0464C15.2628 36.4594 15.4053 36.945 15.4053 37.4418C15.4053 38.1079 15.1491 38.7468 14.6932 39.2178C14.2372 39.6888 13.6189 39.9535 12.974 39.9535Z" fill="black"/>
<path d="M28.4825 0.00777998C28.2695 -0.0224191 28.0536 0.0360366 27.8823 0.170279C27.711 0.304522 27.5984 0.503566 27.5691 0.723617C27.5398 0.943668 27.5964 1.1667 27.7264 1.34366C27.8563 1.52061 28.049 1.63698 28.262 1.66718C33.15 2.37321 37.6822 4.7055 41.1722 8.31082C44.6621 11.9162 46.9197 16.5982 47.6032 21.6478C47.6298 21.8482 47.7257 22.0318 47.8732 22.1647C48.0206 22.2977 48.2098 22.371 48.4055 22.3712C48.4424 22.3712 48.4792 22.3687 48.5157 22.3637C48.6212 22.3488 48.7228 22.3125 48.8147 22.257C48.9066 22.2015 48.9871 22.1278 49.0514 22.0402C49.1158 21.9526 49.1628 21.8527 49.1898 21.7463C49.2168 21.6399 49.2232 21.529 49.2086 21.4201C48.4762 16.0088 46.0569 10.9915 42.317 7.1278C38.5771 3.26417 33.7205 0.764658 28.4825 0.00777998Z" fill="black"/>
<path d="M28.2323 6.75278C31.8309 7.4111 35.1468 9.19583 37.731 11.8654C40.3152 14.5351 42.0428 17.9606 42.68 21.6782C42.7128 21.8723 42.8109 22.0482 42.9569 22.1751C43.1029 22.3018 43.2875 22.3714 43.4783 22.3714C43.5253 22.3713 43.5722 22.3672 43.6185 22.3589C43.8302 22.3207 44.0185 22.1971 44.1421 22.0155C44.2657 21.8338 44.3144 21.6089 44.2774 21.3902C43.5829 17.3333 41.6979 13.595 38.8781 10.6818C36.0582 7.7686 32.4397 5.82117 28.5127 5.10342C28.4079 5.0844 28.3005 5.08689 28.1966 5.11076C28.0927 5.13464 27.9944 5.17942 27.9072 5.24255C27.8201 5.30567 27.7458 5.38591 27.6887 5.4787C27.6315 5.57147 27.5926 5.67496 27.5742 5.78326C27.5558 5.89155 27.5583 6.00254 27.5814 6.10987C27.6045 6.21721 27.6478 6.31879 27.7089 6.40882C27.77 6.49884 27.8477 6.57553 27.9375 6.63456C28.0274 6.69359 28.1275 6.73377 28.2323 6.75278Z" fill="black"/>
<path d="M28.1828 11.8658C30.4929 12.4563 32.6032 13.6871 34.286 15.4256C35.9687 17.1641 37.16 19.3443 37.7314 21.7309C37.7536 21.8407 37.7969 21.9447 37.8589 22.0369C37.9207 22.129 37.9999 22.2073 38.0917 22.2672C38.1834 22.3271 38.2859 22.3673 38.393 22.3856C38.5001 22.4037 38.6097 22.3995 38.7152 22.3732C38.8207 22.3468 38.92 22.2988 39.0072 22.2321C39.0944 22.1653 39.1677 22.0811 39.2228 21.9845C39.2779 21.8879 39.3137 21.7808 39.328 21.6697C39.3423 21.5585 39.3348 21.4455 39.3061 21.3374C38.6635 18.6519 37.3232 16.1987 35.4297 14.2426C33.5363 12.2866 31.1616 10.9019 28.5621 10.2382C28.4577 10.2098 28.3489 10.2032 28.2421 10.2188C28.1353 10.2343 28.0325 10.2718 27.9399 10.329C27.8473 10.3861 27.7666 10.4618 27.7027 10.5516C27.6387 10.6414 27.5929 10.7435 27.5676 10.8518C27.5423 10.9602 27.5382 11.0727 27.5557 11.1827C27.573 11.2927 27.6115 11.398 27.6688 11.4925C27.7261 11.5869 27.8011 11.6685 27.8893 11.7327C27.9776 11.7968 28.0773 11.842 28.1828 11.8658Z" fill="black"/>
<path d="M29.9932 23.2087C30.6344 23.2087 31.2612 23.0123 31.7943 22.6444C32.3274 22.2764 32.7429 21.7533 32.9882 21.1413C33.2336 20.5294 33.2978 19.8561 33.1727 19.2064C33.0476 18.5568 32.7388 17.9601 32.2855 17.4918C31.8321 17.0234 31.2545 16.7044 30.6257 16.5752C29.9968 16.446 29.345 16.5123 28.7527 16.7658C28.1603 17.0192 27.654 17.4485 27.2978 17.9992C26.9416 18.5499 26.7515 19.1975 26.7515 19.8598C26.7515 20.748 27.093 21.5998 27.701 22.2278C28.3089 22.8559 29.1334 23.2087 29.9932 23.2087ZM29.9932 18.1853C30.3138 18.1853 30.6272 18.2835 30.8937 18.4675C31.1603 18.6515 31.3681 18.913 31.4908 19.219C31.6134 19.525 31.6455 19.8616 31.583 20.1865C31.5204 20.5112 31.366 20.8096 31.1394 21.0438C30.9127 21.278 30.6238 21.4375 30.3095 21.5021C29.995 21.5667 29.6691 21.5335 29.3729 21.4068C29.0768 21.2801 28.8236 21.0654 28.6456 20.79C28.4674 20.5147 28.3724 20.191 28.3724 19.8598C28.3724 19.4157 28.5431 18.9898 28.8471 18.6758C29.1511 18.3617 29.5634 18.1853 29.9932 18.1853Z" fill="black"/>
</svg>
