<svg width="46" height="50" viewBox="0 0 46 50" fill="none" xmlns="http://www.w3.org/2000/svg">
<path d="M44.9342 12.1712L23.4949 0.101156C23.3756 0.0347358 23.2425 0 23.1074 0C22.9722 0 22.8391 0.0347358 22.7198 0.101156L1.28054 12.1712C1.14733 12.2434 1.03548 12.3522 0.957016 12.4858C0.878548 12.6195 0.836454 12.7731 0.835266 12.9299V37.07C0.835662 37.226 0.87652 37.3789 0.953479 37.5126C1.03045 37.6461 1.14063 37.7554 1.2723 37.8287L22.7116 49.8988C22.8309 49.9653 22.964 50 23.0991 50C23.2343 50 23.3674 49.9653 23.4867 49.8988L44.9259 37.8287C45.0576 37.7554 45.1678 37.6461 45.2447 37.5126C45.3217 37.3789 45.3626 37.226 45.363 37.07V12.9299C45.3634 12.7748 45.3237 12.6225 45.2483 12.489C45.1728 12.3554 45.0643 12.2457 44.9342 12.1712ZM23.0991 1.84269L42.8068 12.9299L37.0346 16.1802L18.0114 4.70502L23.0991 1.84269ZM3.39149 12.9299L9.60063 9.4813L28.6156 20.9134L23.0991 24.0171L3.39149 12.9299ZM16.3045 5.66201L35.3277 17.1372L30.3225 19.9564L11.3075 8.47259L16.3045 5.66201ZM31.4192 21.2927L35.905 18.7753V25.2069L34.1733 23.4136C34.0771 23.3137 33.9589 23.2401 33.8289 23.1994C33.699 23.1587 33.5615 23.1521 33.4286 23.1802C33.2956 23.2084 33.1714 23.2704 33.0669 23.3607C32.9623 23.451 32.8807 23.5669 32.8292 23.6981L31.4192 27.2502V21.2927ZM2.48444 14.3697L22.2745 25.5173V47.7003L2.48444 36.5527V14.3697ZM23.9237 47.7003V25.5173L29.77 22.2238V31.5868C29.7796 31.7798 29.8509 31.964 29.9725 32.1095C30.0942 32.2551 30.2591 32.3536 30.4408 32.3895C30.6225 32.4253 30.8104 32.3962 30.9743 32.3069C31.1383 32.2176 31.2689 32.0734 31.345 31.8971L33.8682 25.5259L36.1276 27.8709C36.243 27.9926 36.3903 28.0754 36.5509 28.1091C36.7115 28.1428 36.878 28.1258 37.0293 28.0601C37.1805 27.9944 37.3096 27.8832 37.4002 27.7404C37.4907 27.5977 37.5386 27.43 37.5376 27.2588V17.8441L43.7056 14.3955V36.5527L23.9237 47.7003Z" fill="black"/>
</svg>
