<svg width="38" height="50" viewBox="0 0 38 50" fill="none" xmlns="http://www.w3.org/2000/svg">
<path d="M36.9891 18.2508L33.8367 14.6943L34.8231 10.0042C34.9146 9.58818 34.6706 9.1722 34.274 9.03701L29.8098 7.56032L28.376 2.99501C28.2438 2.58943 27.837 2.35025 27.4303 2.43344L22.8441 3.44218L19.3663 0.218386C19.0612 -0.0727954 18.5833 -0.0727954 18.2782 0.218386L14.8004 3.44218L10.2142 2.43344C9.80746 2.33985 9.4007 2.58943 9.2685 2.99501L7.82451 7.56032L3.35016 9.03701C2.95357 9.1722 2.7197 9.58818 2.80105 10.0042L3.78743 14.6943L0.635057 18.2508C0.350326 18.5628 0.350326 19.0516 0.635057 19.3636L3.78743 22.9201L2.80105 27.6102C2.70953 28.0262 2.95357 28.4422 3.35016 28.5774L7.81434 30.0541L7.99738 30.6468L2.68919 45.6947C2.56716 46.0275 2.66885 46.4018 2.94341 46.6202C3.2078 46.8386 3.58405 46.8698 3.87895 46.6826L9.29901 43.2924L11.343 49.4384C11.4548 49.7712 11.7599 50 12.1056 50H12.1158C12.4616 50 12.7666 49.7816 12.8785 49.4488L17.424 36.5953L18.2782 37.3856C18.4307 37.5312 18.624 37.604 18.8273 37.604C19.0307 37.604 19.2138 37.5312 19.3765 37.3856L20.2306 36.5953L24.7762 49.4488C24.888 49.7816 25.2033 50 25.5389 50H25.549C25.8948 50 26.1998 49.7712 26.3117 49.4384L28.3557 43.2924L33.7757 46.6826C34.0706 46.8698 34.4469 46.8386 34.7113 46.6202C34.9757 46.4018 35.0773 46.0275 34.9655 45.6947L29.6471 30.6572L29.8302 30.0645L34.2943 28.5878C34.6909 28.4526 34.9248 28.0366 34.8435 27.6206L33.8571 22.9305L37.0094 19.374C37.2738 19.0516 37.2738 18.5732 36.9891 18.2508ZM12.126 46.6618L10.4989 41.7741C10.4176 41.5349 10.2346 41.3478 10.0007 41.2542C9.76678 41.1606 9.51256 41.1918 9.29901 41.327L4.98736 44.0204L8.80073 33.2363L9.23799 34.6194C9.37019 35.025 9.77695 35.2641 10.1837 35.1809L14.7699 34.1722L16.0919 35.3993L12.126 46.6618ZM32.6266 44.0308L28.315 41.3374C28.1014 41.2022 27.8472 41.1814 27.6133 41.2646C27.3794 41.3478 27.1964 41.5349 27.115 41.7845L25.488 46.6722L21.5018 35.4097L22.8237 34.1826L27.4099 35.1913C27.8167 35.2849 28.2235 35.0354 28.3557 34.6298L28.7929 33.2467L32.6266 44.0308ZM32.3622 22.1298C32.1894 22.3274 32.1182 22.5977 32.169 22.8577L33.0842 27.2359L28.9251 28.6086C28.6811 28.6918 28.4777 28.8893 28.3963 29.1493L27.9997 30.3972L27.054 33.4027L22.7729 32.4667C22.5187 32.4147 22.2543 32.4875 22.0611 32.6643L18.8172 35.6593L15.5733 32.6539C15.4207 32.5187 15.2275 32.4355 15.0241 32.4355C14.9631 32.4355 14.9123 32.4459 14.8513 32.4563L10.5701 33.3923L9.62441 30.3869L9.22782 29.1389C9.14647 28.8893 8.95326 28.6814 8.69904 28.5982L4.5501 27.2359L5.46531 22.8577C5.51615 22.5977 5.44497 22.3274 5.2721 22.1298L2.34344 18.8124L5.28227 15.495C5.45514 15.2974 5.52632 15.027 5.47548 14.767L4.56027 10.3889L8.71938 9.01621C8.96343 8.93302 9.16681 8.73544 9.24816 8.47546L10.5803 4.22213L14.8614 5.15807C15.1157 5.21007 15.3801 5.13727 15.5733 4.96048L18.8172 1.96547L22.0611 4.97088C22.2543 5.14767 22.5187 5.22047 22.7729 5.16847L27.054 4.23253L28.3963 8.48586C28.4777 8.73544 28.6709 8.94342 28.9251 9.02661L33.0842 10.3993L32.169 14.7774C32.1182 15.0374 32.1894 15.3078 32.3622 15.5054L35.2909 18.8124L32.3622 22.1298Z" fill="black"/>
<path d="M18.8173 6.74915C12.0854 6.74915 6.6145 12.344 6.6145 19.2283C6.6145 26.1127 12.0854 31.7076 18.8173 31.7076C25.5491 31.7076 31.02 26.1127 31.02 19.2283C31.02 12.344 25.5491 6.74915 18.8173 6.74915ZM18.8173 30.0437C12.9904 30.0437 8.24154 25.1872 8.24154 19.2283C8.24154 13.2695 12.9904 8.41304 18.8173 8.41304C24.6441 8.41304 29.393 13.2695 29.393 19.2283C29.393 25.1872 24.6441 30.0437 18.8173 30.0437Z" fill="black"/>
<path d="M23.3628 13.0511L16.3767 20.1227L14.2717 17.9908C13.6413 17.3565 12.6142 17.3565 11.9736 17.9908L10.6821 19.2907C10.377 19.6027 10.2042 20.0187 10.2042 20.4659C10.2042 20.913 10.377 21.329 10.6821 21.641L15.2276 26.2375C15.5429 26.5599 15.9598 26.7159 16.3767 26.7159C16.7937 26.7159 17.2106 26.5599 17.5258 26.2375L26.9525 16.7117C27.2575 16.3997 27.4304 15.9838 27.4304 15.5366C27.4304 15.0894 27.2575 14.6734 26.9525 14.3615L25.661 13.0615C25.0305 12.4168 23.9933 12.4168 23.3628 13.0511ZM18.2478 23.1697L16.3767 25.052L11.8414 20.4659L13.1328 19.1763L15.8073 21.8802C16.1225 22.2026 16.631 22.2026 16.9462 21.8802L24.5119 14.2367L23.9424 13.6439L25.8034 15.5262L18.2478 23.1697Z" fill="black"/>
</svg>
