<svg width="50" height="50" viewBox="0 0 50 50" fill="none" xmlns="http://www.w3.org/2000/svg">
<path d="M16.6562 15.3743L15.5624 21.9632C15.5048 22.2726 15.5332 22.5925 15.6442 22.8858C15.7551 23.179 15.9441 23.4335 16.1891 23.6196C16.4301 23.8068 16.7166 23.9204 17.0165 23.9475C17.3164 23.9746 17.6176 23.9142 17.8861 23.773L23.7988 20.7055L29.4041 23.7362C29.6717 23.8859 29.9745 23.9545 30.2778 23.934C30.5812 23.9136 30.8729 23.805 31.1196 23.6208C31.3663 23.4365 31.5581 23.1839 31.6729 22.8918C31.7878 22.5998 31.8212 22.2801 31.7692 21.9693L30.6754 15.4049L35.2755 10.7362C35.4918 10.5183 35.6449 10.2419 35.7175 9.93831C35.7901 9.63473 35.7794 9.31611 35.6864 9.01855C35.5935 8.72098 35.4221 8.45637 35.1917 8.25468C34.9613 8.05298 34.681 7.92227 34.3827 7.87735L27.9673 6.90802L25.1056 0.920302C24.9699 0.641439 24.7619 0.407484 24.5048 0.244869C24.2478 0.0822528 23.9521 -0.00254379 23.651 5.81273e-05C23.351 -0.00139847 23.0565 0.0839385 22.8006 0.246491C22.5447 0.409043 22.3376 0.642377 22.2024 0.920302L19.3347 6.90802L12.9194 7.86508C12.6181 7.90727 12.3344 8.03689 12.101 8.239C11.8676 8.44111 11.694 8.7075 11.6001 9.0075C11.5062 9.3075 11.4958 9.62892 11.5702 9.93476C11.6446 10.2406 11.8007 10.5184 12.0206 10.7362L16.6562 15.3743ZM20.0442 8.66262C20.1834 8.63849 20.315 8.58026 20.4281 8.49276C20.5412 8.40527 20.6326 8.29104 20.6946 8.15955L23.651 2.02459L26.6074 8.15955C26.6711 8.29333 26.7652 8.40902 26.8816 8.49666C26.998 8.5843 27.1332 8.64126 27.2755 8.66262L33.8269 9.64421L29.0967 14.3927C28.9926 14.4964 28.9145 14.625 28.8692 14.7672C28.8238 14.9094 28.8126 15.0609 28.8365 15.2086L29.954 21.9264L24.2246 18.8282C24.0992 18.7615 23.9604 18.7267 23.8195 18.7267C23.6787 18.7267 23.5398 18.7615 23.4145 18.8282L17.3835 21.9693L18.5069 15.2209C18.5266 15.0736 18.5116 14.9236 18.4632 14.7836C18.4148 14.6436 18.3345 14.5179 18.229 14.4172L13.4988 9.66875L20.0442 8.66262Z" fill="black"/>
<path d="M48.4847 27.3007C48.1877 26.9447 47.8259 26.6531 47.42 26.4425C47.0142 26.232 46.5722 26.1066 46.1196 26.0737C45.667 26.0414 45.2128 26.1041 44.7841 26.258C44.3554 26.4119 43.961 26.6538 43.6244 26.9694L35.4352 34.6013C35.4139 34.4317 35.3823 34.2637 35.3406 34.0982C35.203 33.5666 34.9563 33.0722 34.6175 32.6486C34.2787 32.2251 33.8558 31.8825 33.3776 31.6442C31.858 30.9816 29.7471 31.2884 27.7072 31.5951C26.5141 31.8375 25.2955 31.9159 24.0827 31.8283C23.5429 31.6878 23.021 31.4818 22.5276 31.2148C20.9785 30.497 18.8558 29.5154 14.9061 30.4172C12.8669 30.9637 10.9937 32.0357 9.46042 33.5338V31.2884C9.46042 31.0443 9.36698 30.8103 9.20065 30.6377C9.03432 30.4651 8.80873 30.3681 8.57351 30.3681H0.886915C0.65169 30.3681 0.4261 30.4651 0.259771 30.6377C0.0934424 30.8103 0 31.0443 0 31.2884V49.0798C0 49.3238 0.0934424 49.5579 0.259771 49.7305C0.4261 49.9031 0.65169 50 0.886915 50H8.57351C8.80873 50 9.03432 49.9031 9.20065 49.7305C9.36698 49.5579 9.46042 49.3238 9.46042 49.0798V47.8037C10.643 48.092 16.0118 49.3865 19.9792 49.3865C24.1182 49.3865 29.1795 48.4049 32.2955 47C38.0368 44.4172 47.4913 33.27 48.26 32.3681C48.9259 31.7201 49.322 30.8281 49.364 29.8817C49.4059 28.9354 49.0905 28.0094 48.4847 27.3007ZM7.68659 48.1595H1.77383V32.2086H7.68659V48.1595ZM47.0301 31.0369L46.9474 31.1227C46.8468 31.2393 37.0789 42.8467 31.5742 45.319C28.6769 46.6258 23.8994 47.546 19.9792 47.546C15.8403 47.546 9.73241 45.9755 9.67328 45.9632C9.60259 45.9543 9.53112 45.9543 9.46042 45.9632V36.1473C10.1049 35.3804 12.3813 32.8896 15.2904 32.227C18.6725 31.4602 20.3399 32.227 21.7945 32.908C22.422 33.2287 23.0853 33.4678 23.7693 33.6197C25.1657 33.7563 26.5738 33.6819 27.9496 33.3988C29.6703 33.1534 31.6215 32.8712 32.6798 33.3313C32.9074 33.467 33.1064 33.6489 33.2648 33.866C33.4233 34.0831 33.538 34.3311 33.6022 34.5951C33.6881 34.9573 33.6895 35.3355 33.6062 35.6982C33.5229 36.061 33.3573 36.398 33.1233 36.681C31.7752 38.5583 23.5742 41.3681 20.2098 41.0921C19.9746 41.0733 19.7418 41.1524 19.5628 41.3117C19.3837 41.471 19.273 41.6977 19.2549 41.9417C19.2369 42.1858 19.313 42.4273 19.4666 42.6131C19.6202 42.7989 19.8386 42.9138 20.0738 42.9325C20.2571 42.9325 20.4582 42.9325 20.6651 42.9325C24.3369 42.9325 31.3495 40.6872 33.9156 38.4418L33.9807 38.4049L44.7655 28.3436C45.0896 28.0441 45.5147 27.8897 45.9481 27.9142C46.1749 27.9284 46.3966 27.9901 46.5998 28.0956C46.803 28.201 46.9836 28.348 47.1306 28.5277C47.4343 28.8761 47.5939 29.3343 47.5751 29.8036C47.5563 30.2729 47.3606 30.7158 47.0301 31.0369Z" fill="black"/>
</svg>
